<svg xmlns="http://www.w3.org/2000/svg" width="64" height="64"><path d="M32 6C17.64 6 6 17.64 6 32s11.64 26 26 26 26-11.64 26-26S46.36 6 32 6zm17.488 12.672a21.892 21.892 0 014.5 12.863c-4.48-.848-9.66-1.262-15.156-.152a102.904 102.904 0 00-2.086-4.547c6.465-2.703 10.586-6.059 12.742-8.164zm-2.722-2.965c-1.871 1.809-5.72 4.953-11.907 7.496a102.39 102.39 0 00-8.058-12.574A21.731 21.731 0 0132 10a21.9 21.9 0 0114.766 5.707zm-23.942-3.695a98.019 98.019 0 018.23 12.562c-5.394 1.703-12.171 2.84-20.503 2.551 1.527-6.727 6.144-12.285 12.273-15.113zM10 32c0-.3.012-.598.023-.895 1.114.043 2.207.075 3.27.075 7.91 0 14.418-1.22 19.684-2.95a92.69 92.69 0 011.953 4.196c-6.266 2.097-12.813 6.41-19.102 14.472C12.215 42.977 10 37.742 10 32zm8.805 17.59c5.855-7.594 11.863-11.598 17.652-13.477 2.098 5.41 3.594 10.832 4.387 16.028A21.92 21.92 0 0132 54c-4.95 0-9.52-1.645-13.195-4.41zm25.758.453c-.852-4.86-2.282-9.883-4.196-14.895 4.727-.824 9.242-.41 13.344.407-.977 5.98-4.371 11.156-9.148 14.488zm0 0" fill="#fff" id="surface272552842"/></svg>